<?xml version="1.0" standalone="no"?>
<!DOCTYPE svg PUBLIC "-//W3C//DTD SVG 20010904//EN""http://www.w3.org/TR/2001/REC-SVG-20010904/DTD/svg10.dtd">
<svg version="1.0" xmlns="http://www.w3.org/2000/svg" viewBox="0 0 95.000000 95.000000" preserveAspectRatio="xMidYMid meet">
    <metadata>
        Created by potrace 1.16, written by Peter Selinger 2001-2019
    </metadata>
    <g transform="translate(0.000000,95.000000) scale(0.100000,-0.100000)" stroke="none">
        <path d="M90 638 c1 -274 11 -311 95 -356 40 -21 277 -29 359 -12 103 21 146
91 146 235 l0 55 55 0 c46 0 60 4 80 25 23 22 25 31 25 123 0 93 -1 100 -26
123 l-26 24 -354 3 -354 3 0 -223z m500 -53 c0 -173 0 -176 -25 -200 -23 -24
-28 -25 -176 -25 -210 0 -199 -13 -199 222 l0 178 200 0 200 0 0 -175z"/>
        <path d="M90 145 l0 -45 340 0 340 0 0 45 0 45 -340 0 -340 0 0 -45z"/>
    </g>
</svg>
