<?xml version="1.0" standalone="no"?>
<!DOCTYPE svg PUBLIC "-//W3C//DTD SVG 20010904//EN""http://www.w3.org/TR/2001/REC-SVG-20010904/DTD/svg10.dtd">
<svg version="1.0" xmlns="http://www.w3.org/2000/svg" viewBox="0 0 95.000000 95.000000" preserveAspectRatio="xMidYMid meet">
    <metadata>
        Created by potrace 1.16, written by Peter Selinger 2001-2019
    </metadata>
    <g transform="translate(0.000000,95.000000) scale(0.100000,-0.100000)" stroke="none">
        <path d="M300 710 l0 -60 -60 0 -60 0 0 -45 0 -45 105 0 105 0 0 105 0 105
-45 0 -45 0 0 -60z"/>
        <path d="M550 665 l0 -105 110 0 110 0 0 45 0 45 -65 0 -65 0 0 60 0 60 -45 0
-45 0 0 -105z"/>
        <path d="M180 355 l0 -45 60 0 60 0 0 -65 0 -65 45 0 45 0 0 110 0 110 -105 0
-105 0 0 -45z"/>
        <path d="M550 290 l0 -110 45 0 45 0 0 65 0 65 65 0 65 0 0 45 0 45 -110 0
-110 0 0 -110z"/>
    </g>
</svg>
