<?xml version="1.0" standalone="no"?>
<!DOCTYPE svg PUBLIC "-//W3C//DTD SVG 20010904//EN""http://www.w3.org/TR/2001/REC-SVG-20010904/DTD/svg10.dtd">
<svg version="1.0" xmlns="http://www.w3.org/2000/svg" viewBox="0 0 95.000000 95.000000" preserveAspectRatio="xMidYMid meet">
    <metadata>
        Created by potrace 1.16, written by Peter Selinger 2001-2019
    </metadata>
    <g transform="translate(0.000000,95.000000) scale(0.100000,-0.100000)" stroke="none">
        <path d="M439 859 c-63 -78 -97 -155 -113 -251 -6 -34 -4 -38 31 -59 21 -12
55 -38 75 -57 l36 -34 56 43 c30 24 65 51 78 60 21 15 22 19 10 79 -14 77 -58
172 -104 224 l-34 39 -35 -44z"/>
        <path d="M50 551 c0 -47 24 -149 46 -198 55 -125 164 -227 292 -273 77 -28
130 -23 220 21 160 78 282 262 282 425 l0 42 -42 -5 c-129 -14 -259 -80 -334
-167 l-41 -48 -58 61 c-32 33 -76 72 -99 85 -56 33 -149 63 -213 68 -44 4 -53
2 -53 -11z m193 -127 c60 -31 115 -83 168 -163 30 -44 57 -80 61 -81 4 0 23
25 43 55 69 109 149 180 236 210 l38 14 -16 -42 c-45 -115 -139 -210 -246
-247 -62 -22 -86 -18 -168 26 -83 46 -167 150 -194 242 -6 20 -4 21 19 12 15
-5 41 -17 59 -26z"/>
    </g>
</svg>
