<?xml version="1.0" standalone="no"?>
<!DOCTYPE svg PUBLIC "-//W3C//DTD SVG 20010904//EN""http://www.w3.org/TR/2001/REC-SVG-20010904/DTD/svg10.dtd">
<svg version="1.0" xmlns="http://www.w3.org/2000/svg" viewBox="0 0 95.000000 95.000000" preserveAspectRatio="xMidYMid meet">
    <metadata>
        Created by potrace 1.16, written by Peter Selinger 2001-2019
    </metadata>
    <g transform="translate(0.000000,95.000000) scale(0.100000,-0.100000)" stroke="none">
        <path d="M182 890 c-49 -21 -53 -53 -50 -430 l3 -348 24 -26 24 -26 289 0 289
0 24 25 25 24 0 365 0 365 -24 28 -24 28 -279 2 c-157 1 -288 -2 -301 -7z
m538 -180 l0 -100 -245 0 -245 0 0 100 0 100 245 0 245 0 0 -100z m0 -375 l0
-185 -245 0 -245 0 0 185 0 185 245 0 245 0 0 -185z"/>
        <path d="M300 370 l0 -110 45 0 45 0 0 110 0 110 -45 0 -45 0 0 -110z"/>
    </g>
</svg>
