<?xml version="1.0" encoding="UTF-8" standalone="no"?>
<!DOCTYPE svg PUBLIC "-//W3C//DTD SVG 1.1//EN" "http://www.w3.org/Graphics/SVG/1.1/DTD/svg11.dtd">
<svg width="100%" height="100%" viewBox="0 0 2917 2917" version="1.1" xmlns="http://www.w3.org/2000/svg" xmlns:xlink="http://www.w3.org/1999/xlink" xml:space="preserve" style="fill-rule:evenodd;clip-rule:evenodd;stroke-linecap:round;stroke-miterlimit:2;">
    <g transform="matrix(4.16667,0,0,4.16667,0,0)">
        <path d="M146.096,373.426C142.842,399.251 141.418,443.722 141.444,451.41C141.302,453.991 140.596,455.715 139.55,456.549C138.477,457.152 137.517,456.809 136.219,455.577C135.429,454.745 125.716,448.532 123.995,443.859C123.627,442.74 123.543,442.052 123.458,441.362C124.31,427.734 128.636,403.171 133.105,381.619C128.39,376.863 121.53,371.45 116.193,370.969C110.602,370.286 101.79,375.146 93.542,380.867L92.608,388.213C89.156,414.295 87.081,466.541 86.881,474.26C86.739,476.842 86.032,478.564 84.987,479.397C83.914,480 82.954,479.658 81.655,478.426C80.865,477.596 70.193,469.174 68.472,464.499C68.133,463.61 68.021,462.693 67.937,462.005C68.505,447.946 75.629,416.264 80.973,390.638C74.59,396.584 68.742,403.161 63.856,408.217C62.642,409.539 60.834,409.771 59.902,409.657C59.422,409.486 58.659,408.884 57.615,407.854C55.526,405.789 50.305,396.902 49.316,394.465C48.978,393.576 48.894,392.888 49.317,392.601C54.486,387.975 69.963,379.462 84.253,374.366C90.587,343.719 97.372,314.877 107.971,279.719C108.622,277.537 110.203,277.334 111.417,277.879C112.858,278.394 113.958,279.883 113.45,281.348C103.783,312.889 99.115,340.293 94.815,370.681C101,368.723 119.837,363.276 125.739,364.616C129.296,365.559 133.475,369.685 135.168,372.265C142.888,336.077 151.34,300.262 161.911,264.874C162.561,262.693 164.142,262.49 165.357,263.034C166.797,263.549 167.897,265.039 167.389,266.503C155.915,303.871 150.907,335.981 146.096,373.426Z" style="fill-rule:nonzero;"/>
        <path d="M192.386,356.067C191.172,355.523 188.998,358.366 186.002,363.879C182.81,369.649 178.854,378.549 175.181,389.742C167.409,412.417 166.981,427.622 169.946,429.34C172.656,430.857 180.566,418.654 183.477,412.453C184.55,409.984 186.247,405.105 188.055,399.279C190.825,390.065 193.369,380.883 195.941,371.928C195.519,364.756 194.364,357.212 192.386,356.067ZM223.411,393.812C223.411,393.812 220.444,401.418 217.194,410.459C213.69,419.301 199.708,436.245 191.66,434.247C189.514,433.59 186.325,426.307 184.661,420.227C183.191,425.076 179.544,436.5 174.49,438.314C169.208,440.157 160.005,430.615 159.075,426.771C157.947,421.321 157.358,405.313 163.547,386.572C169.369,368.576 176.799,356.201 179.907,353.472C181.121,352.15 184.679,351.229 188.068,350.794C191.004,350.418 193.772,350.527 194.987,351.072C196.991,352.447 198.175,358.354 198.71,362.714C200.237,358.323 201.198,354.937 201.481,353.502C201.932,351.579 203.796,351.807 205.745,352.722C207.212,353.466 207.354,354.613 206.845,356.077L206.704,356.795C204.047,365.061 195.618,419.754 199.288,421.613C201.518,422.96 209.568,415.633 212.93,407.509C215.954,400.362 218.301,391.437 218.301,391.437L223.411,393.812Z" style="fill-rule:nonzero;"/>
        <path d="M236.53,336.186C234.61,335.5 233.369,332.861 232.918,329.191C232.608,326.666 232.496,323.884 233.061,321.013C234.051,314.128 237.414,307.869 240.971,308.811C242.891,309.497 244.162,312.363 244.612,316.035C244.922,318.561 245.034,321.342 244.469,324.213C243.252,331.128 240.088,337.128 236.53,336.186ZM255.69,389.438C255.69,389.438 252.949,397.015 249.699,406.057C246.223,415.127 229.304,432.448 221.256,430.45C218.151,429.449 212.93,414.968 213.412,409.546C214.29,401.74 220.845,384.117 223.248,375.651C226.922,362.593 230.286,352.604 230.823,349.505C231.247,347.353 233.111,347.58 235.086,348.725C236.527,349.239 236.696,350.616 236.16,351.851L236.045,352.798C234.887,356.443 232.427,370.045 230.672,383.79C228.325,400.174 226.908,416.673 228.659,417.846C230.889,419.192 242.073,411.229 245.464,403.335C248.459,395.959 250.805,387.034 250.805,387.034L255.69,389.438Z" style="fill-rule:nonzero;"/>
        <path d="M314.908,382.075C314.908,382.075 311.912,389.451 308.69,398.723C305.185,407.564 291.204,424.509 283.156,422.511C280.049,421.51 274.829,407.028 275.339,401.835C275.481,399.253 276.922,394.173 278.704,388.116C280.71,382.031 294.586,343.657 292.382,342.541C290.915,341.797 288.626,345.587 285.067,352.104C281.309,358.879 276.59,369.042 271.166,380.926C261.502,401.278 255.823,416.692 253.166,424.958C252.883,426.394 251.922,427.914 250.567,428.089C249.211,428.263 248.844,427.144 248.647,425.537C248.649,421.809 249.87,396.245 250.663,387.751C252.277,369.13 254.173,354.668 254.4,352.774C254.682,351.34 255.446,348.211 256.208,346.949C258.129,343.904 262.282,340.342 265.163,339.506C267.365,338.758 269.115,339.931 268.155,343.318C266.487,348.427 259.872,376.78 258.542,386.508C258.484,387.914 258.203,389.349 257.975,391.242C260.462,385.329 263.683,377.923 266.933,370.746C277.698,348.154 286.766,336.036 289.476,335.688C292.639,335.282 299.528,340.925 298.2,345.059C297.069,348.933 294.636,362.764 292.656,376.537C290.505,392.664 288.835,408.961 290.784,409.877C293.014,411.224 301.036,403.666 304.426,395.772C307.422,388.396 310.022,379.671 310.022,379.671L314.908,382.075Z" style="fill-rule:nonzero;"/>
        <path d="M357.36,342.831C363.093,340.93 368.431,339.546 372.723,338.995C375.434,338.647 377.721,338.588 379.614,339.044C382.211,339.644 396.356,346.453 403.077,350.719C403.133,349.313 403.218,348.137 403.049,346.761C403.167,329.029 405.299,277.242 402.65,255.671C401.946,249.935 401.043,246.322 399.406,246.064C391.667,244.727 364.939,303.631 357.36,342.831ZM412.593,347.866C412.867,379.998 415.767,411.094 417.29,419.756C418.812,428.418 416.919,429.826 414.688,430.346C412.712,431.065 406.953,427.144 406.643,422.754C406.164,418.853 403.999,386.264 403.27,361.65C396.184,356.265 374.698,345.734 369.813,345.196C366.085,344.742 361.284,346.756 355.946,350.005C349.328,391.412 352.482,418.979 353.948,430.912C354.483,435.271 355.696,441.408 356.739,446.17C357.784,450.932 353.32,451.971 347.984,449.625C341.688,446.936 334.431,442.039 332.598,436.447C329.607,427.041 336.958,393.464 344.987,357.938C334.594,366.729 324.481,377.816 319.369,382.9C318.155,384.223 316.346,384.455 315.415,384.34C314.934,384.17 314.172,383.566 313.127,382.536C311.039,380.474 306.099,373.881 305.111,371.443C304.405,369.437 303.982,367.858 305.677,366.709C311.382,362.714 330.192,353.309 347.702,346.4C356.665,307.257 371.112,241.769 379.753,237.397C387.547,233.601 405.506,237.824 409.911,241.92C413.582,245.645 412.32,315.735 412.593,347.866Z" style="fill-rule:nonzero;"/>
        <path d="M484.35,360.34C484.35,360.34 479.969,373.255 477.256,379.197C472.934,388.843 460.731,401.598 452.937,401.664C448.362,401.784 442.352,386.473 442.354,379.014C442.242,374.365 448.232,361.477 450.209,357.027C453.968,348.387 457.162,340.751 456.483,338.973C455.467,336.308 454.367,336.681 452.249,336.253C449.453,335.913 447.336,333.621 446.32,330.953C445.331,334.11 443.437,339.248 440.045,349.008C435.553,361.005 435.438,363.816 432.275,371.682C430.551,376.331 428.518,376.592 427.726,375.761C426.682,374.729 426.373,372.205 427.079,370.483C428.972,365.346 432.137,355.615 434.428,346.231C436.576,337.564 438.415,326.373 438.641,324.479C438.048,323.39 434.407,318.03 434.182,316.194C434.013,312.952 436.385,307.986 439.209,306.692C441.612,305.684 448.162,306.708 448.981,309.634C450.194,313.906 449.288,319.617 448.61,321.568C449.372,324.036 449.908,326.53 452.167,328.105C453.663,329.079 455.837,329.965 459.451,329.501C460.355,329.386 461.118,329.988 461.908,330.818C463.827,333.37 465.519,339.679 464.079,342.895C460.773,351.476 457.324,366.371 456.332,376.987C455.993,379.828 456.048,382.15 456.274,383.986C456.752,387.888 458.079,389.35 459.294,389.895C460.959,390.379 470.196,383.366 474.265,373.521C477.626,365.397 479.465,357.937 479.465,357.937L484.35,360.34Z" style="fill-rule:nonzero;"/>
        <path d="M506.104,322.586C502.797,329.303 502.372,338.915 503.47,347.864C504.062,352.684 505.077,357.214 506.234,361.028C506.913,359.078 507.562,356.896 508.41,354.457C513.951,336.031 517.485,314.365 514.831,313.308C513.391,312.794 510.142,316.241 506.104,322.586ZM498.02,350.195C497.485,345.836 497.174,341.445 497.402,337.688C492.4,347.419 485.874,363.407 483.753,368.574C485.193,372.818 488.268,382.913 490.356,386.841C491.797,389.221 492.192,388.704 494.197,386.349C496.344,383.276 499.735,377.247 503.07,368.894C500.36,363.646 498.837,356.85 498.02,350.195ZM542.862,352.835C542.862,352.835 538.227,365.55 536.08,370.487C533.368,376.43 525.797,382.062 519.839,382.128C517.297,381.986 514.219,381.216 511.2,379.039C506.593,388.255 501.538,395.664 497.725,396.385C492.105,397.339 485.725,392.098 484.51,389.689C483.918,388.601 482.761,384.786 481.859,381.172C481.123,386.394 480.359,391.387 479.764,395.892C479.539,397.785 478.098,399.136 476.94,399.051C476.037,399.167 475.019,398.365 475.247,396.471C475.7,392.684 478.845,352.888 484.925,316.445C492.874,269.039 496.323,254.146 496.973,251.964C497.679,250.242 497.792,249.295 499.233,247.944C501.436,245.332 508.44,240.703 511.068,239.667C513.919,238.602 515.867,241.382 514.793,243.851C512.873,248.76 504.112,270.861 493.934,315.056C491.645,324.44 489.354,335.69 487.29,346.91C488.9,343.207 491.076,338.499 493.28,334.021C499.581,321.791 508.254,308.323 511.303,307C515.229,305.331 524.603,310.656 525.561,314.729C526.746,318.771 524.679,339.316 520.099,356.22C518.687,361.53 516.453,367.645 513.966,373.557C516.198,374.902 518.315,375.33 520.377,375.299C524.529,375.465 529.923,370.81 532.156,366.561C534.358,362.083 537.921,349.972 537.921,349.972L542.862,352.835Z" style="fill-rule:nonzero;"/>
        <path d="M559.899,314.054C554.955,322.38 551.25,335.209 549.667,344.736C551.729,344.704 555.372,344.47 557.293,343.291C559.411,341.854 563.083,336.256 566.023,326.554C568.736,316.883 568.202,308.793 566.225,307.647C565.718,307.247 563.09,308.282 559.899,314.054ZM588.947,346.923C588.947,346.923 586.176,356.136 582.786,364.029C579.395,371.923 568.661,387.285 561.346,389.39C556.008,390.773 541.157,387.551 537.967,382.133C535.877,378.206 533.933,362.371 540.378,338.235C546.456,314.846 556.428,302.611 561.088,301.313C564.391,300.19 572.354,303.365 573.54,307.408C574.723,311.452 573.76,320.434 571.669,327.694C568.646,338.572 562.092,348.736 559.493,350.001C557.346,351.21 552.066,351.187 548.847,351.135C548.138,360.315 548.586,369.582 549.348,375.777C549.855,379.908 550.419,382.633 551.154,383.006C555.587,385.467 572.533,372.104 577.901,361.626C581.433,354.879 584.147,345.208 584.514,344.461L588.947,346.923Z" style="fill-rule:nonzero;"/>
        <path d="M602.516,289.24C600.596,288.554 599.354,285.916 598.904,282.245C598.593,279.72 598.482,276.938 599.047,274.066C600.037,267.182 603.4,260.923 606.958,261.864C608.877,262.551 610.147,265.418 610.598,269.09C610.909,271.614 611.02,274.396 610.455,277.267C609.239,284.182 606.075,290.182 602.516,289.24ZM621.676,342.492C621.676,342.492 618.934,350.068 615.685,359.11C612.208,368.182 595.291,385.503 587.243,383.505C584.137,382.503 578.916,368.021 579.397,362.6C580.275,354.795 586.831,337.171 589.234,328.705C592.908,315.646 596.271,305.658 596.809,302.559C597.232,300.406 599.096,300.634 601.073,301.779C602.513,302.293 602.682,303.67 602.145,304.904L602.032,305.852C600.873,309.497 598.413,323.099 596.658,336.844C594.31,353.228 592.893,369.727 594.644,370.899C596.875,372.246 608.059,364.283 611.451,356.39C614.445,349.013 616.792,340.088 616.792,340.088L621.676,342.492Z" style="fill-rule:nonzero;"/>
        <path d="M656.692,338C656.692,338 653.978,345.807 650.475,354.648C645.445,367.881 629.458,381.585 621.355,379.129C618.22,377.898 613.253,363.617 613.508,358.225C613.765,352.83 617.074,334.924 625.328,303.097L616.433,303.538C613.665,303.427 612.453,297.289 615.587,296.653L627.815,293.454C633.017,274.14 637.454,261.682 638.047,259.041C638.471,256.891 640.109,257.146 642.057,258.062C643.525,258.806 643.694,260.182 643.383,261.388L643.044,262.363C642.197,264.803 639.511,276.569 636.513,291.406L646.962,288.666C648.742,288.205 649.503,290.672 648.684,293.341C647.92,296.469 645.123,303.587 642.808,303.419L634.251,302.885C633.828,305.035 633.628,307.159 633.206,309.313C628.34,336.975 625.65,365.524 628.756,366.524C631.381,367.353 640.786,363.583 646.241,351.927C649.715,344.723 651.807,335.597 651.807,335.597L656.692,338Z" style="fill-rule:nonzero;"/>
        <path d="M440.968,438.947L440.968,436.865C440.968,434.926 441.469,433.403 442.471,432.301C443.474,431.197 444.868,430.533 446.654,430.308C448.286,430.102 449.585,430.339 450.556,431.02C451.526,431.699 452.01,432.754 452.01,434.18L452.01,434.334L449.487,434.652L449.487,434.575C449.487,433.83 449.236,433.273 448.735,432.906C448.234,432.54 447.541,432.412 446.654,432.523C445.599,432.657 444.813,433.064 444.292,433.747C443.772,434.43 443.512,435.406 443.512,436.678L443.512,438.586C443.512,439.807 443.775,440.68 444.302,441.204C444.83,441.729 445.619,441.924 446.673,441.791C447.559,441.679 448.25,441.384 448.745,440.903C449.239,440.423 449.487,439.817 449.487,439.085L449.487,438.988L451.991,438.672L451.991,438.769C451.991,440.233 451.509,441.431 450.546,442.362C449.583,443.293 448.279,443.862 446.634,444.07C444.849,444.296 443.458,443.983 442.462,443.132C441.466,442.281 440.968,440.887 440.968,438.947Z" style="fill-rule:nonzero;"/>
        <path d="M463.421,434.164C463.421,431.659 462.432,430.531 460.454,430.781C459.439,430.909 458.684,431.313 458.189,431.992C457.695,432.672 457.448,433.646 457.448,434.918L457.448,436.826C457.448,438.047 457.695,438.922 458.189,439.451C458.684,439.979 459.439,440.179 460.454,440.051C462.432,439.801 463.421,438.475 463.421,436.072L463.421,434.164ZM454.904,437.187L454.904,435.104C454.904,433.165 455.395,431.645 456.378,430.545C457.361,429.444 458.719,428.784 460.454,428.565C462.163,428.35 463.505,428.668 464.482,429.521C465.458,430.374 465.946,431.771 465.946,433.711L465.946,435.793C465.946,437.719 465.448,439.237 464.453,440.346C463.457,441.454 462.098,442.117 460.376,442.335C458.655,442.552 457.312,442.233 456.349,441.379C455.385,440.523 454.904,439.126 454.904,437.187Z" style="fill-rule:nonzero;"/>
        <path d="M482.02,439.39L479.708,439.682L476.855,429.809L473.985,440.404L471.691,440.693L467.856,427.88L470.438,427.555L472.963,436.968L475.294,426.941L478.417,426.547L480.98,435.955L483.253,425.936L485.74,425.622L482.02,439.39Z" style="fill-rule:nonzero;"/>
        <path d="M496.072,430.041C496.072,427.536 495.083,426.408 493.103,426.658C492.088,426.786 491.333,427.189 490.838,427.868C490.344,428.548 490.097,429.523 490.097,430.795L490.097,432.703C490.097,433.924 490.344,434.798 490.838,435.327C491.333,435.855 492.088,436.056 493.103,435.928C495.083,435.678 496.072,434.352 496.072,431.949L496.072,430.041ZM487.553,433.063L487.553,430.981C487.553,429.042 488.044,427.521 489.028,426.422C490.01,425.32 491.369,424.661 493.103,424.442C494.812,424.227 496.155,424.545 497.131,425.398C498.107,426.25 498.595,427.647 498.595,429.587L498.595,431.669C498.595,433.596 498.097,435.114 497.103,436.222C496.107,437.331 494.749,437.994 493.027,438.211C491.305,438.429 489.962,438.11 488.999,437.255C488.035,436.4 487.553,435.003 487.553,433.063Z" style="fill-rule:nonzero;"/>
        <path d="M507.424,428.801C508.837,428.622 509.543,427.91 509.543,426.664C509.543,426.047 509.358,425.607 508.985,425.347C508.613,425.085 508.092,424.996 507.424,425.081L504.09,425.502L504.09,429.222L507.424,428.801ZM504.09,431.38L504.09,436.603L501.566,436.921L501.566,423.623L507.347,422.894C508.798,422.71 509.946,422.912 510.787,423.5C511.628,424.087 512.049,425.037 512.049,426.348C512.049,427.297 511.822,428.113 511.366,428.794C510.909,429.475 510.238,430.013 509.351,430.406L512.646,435.521L509.641,435.901L506.73,431.046L504.09,431.38Z" style="fill-rule:nonzero;"/>
        <path d="M517.659,431.188L517.659,434.889L515.135,435.207L515.135,421.91L517.659,421.591L517.659,428.047L523.325,420.875L526.563,420.467L521.61,426.449L526.948,433.716L523.883,434.103L519.914,428.476L517.659,431.188Z" style="fill-rule:nonzero;"/>
        <path d="M531.806,419.805L531.806,433.103L529.282,433.421L529.282,420.123L531.806,419.805Z" style="fill-rule:nonzero;"/>
        <path d="M546.357,431.265L543.832,431.584L537.684,423.553L537.684,432.359L535.161,432.679L535.161,419.381L537.684,419.063L543.832,427.113L543.832,418.285L546.357,417.967L546.357,431.265Z" style="fill-rule:nonzero;"/>
        <path d="M549.519,425.238L549.519,423.156C549.519,421.217 550.02,419.694 551.022,418.593C552.025,417.489 553.418,416.825 555.205,416.6C556.27,416.465 557.208,416.523 558.018,416.773C558.828,417.024 559.454,417.463 559.897,418.088C560.34,418.713 560.561,419.488 560.561,420.413L560.561,420.567L558.038,420.887L558.038,420.809C558.038,420.102 557.787,419.565 557.286,419.198C556.785,418.832 556.091,418.703 555.205,418.815C554.151,418.948 553.364,419.354 552.843,420.029C552.323,420.705 552.064,421.679 552.064,422.951L552.064,424.858C552.064,426.105 552.323,426.988 552.843,427.506C553.364,428.025 554.157,428.217 555.224,428.082C556.187,427.961 556.9,427.663 557.362,427.187C557.826,426.71 558.057,426.055 558.057,425.22L558.057,424.738L555.146,425.105L555.146,423.023L560.561,422.34L560.561,424.537C560.561,426.259 560.083,427.607 559.125,428.583C558.169,429.559 556.856,430.15 555.185,430.361C553.413,430.586 552.025,430.272 551.022,429.423C550.02,428.572 549.519,427.178 549.519,425.238Z" style="fill-rule:nonzero;"/>
        <path d="M518.951,204.062C478.262,157.473 418.422,128.039 351.708,128.039C273.873,128.039 205.395,168.103 165.772,228.733" style="fill:none;stroke:#5D5D61;stroke-width:5.67px;"/>
        <path d="M171.009,478.927C211.266,535.249 277.2,571.961 351.708,571.961C437.667,571.961 512.213,523.099 549.086,451.632" style="fill:none;stroke:#5D5D61;stroke-width:5.67px;"/>
    </g>
</svg>
