<?xml version="1.0" standalone="no"?>
<!DOCTYPE svg PUBLIC "-//W3C//DTD SVG 20010904//EN""http://www.w3.org/TR/2001/REC-SVG-20010904/DTD/svg10.dtd">
<svg version="1.0" xmlns="http://www.w3.org/2000/svg" viewBox="0 0 178.000000 178.000000" preserveAspectRatio="xMidYMid meet">
    <metadata>
        Created by potrace 1.16, written by Peter Selinger 2001-2019
    </metadata>
    <g transform="translate(0.000000,178.000000) scale(0.100000,-0.100000)" stroke="none">
        <path d="M321 1496 c-51 -28 -50 -22 -51 -608 l0 -546 30 -31 c20 -20 44 -32
73 -36 23 -3 270 -5 549 -3 496 3 507 3 535 24 51 38 52 50 52 590 1 276 -2
516 -5 533 -4 18 -20 45 -36 62 l-30 29 -546 0 c-435 -1 -552 -3 -571 -14z
m239 -166 l0 -110 -110 0 -110 0 0 94 c0 124 2 126 126 126 l94 0 0 -110z
m580 -435 l0 -545 -255 0 -255 0 0 545 0 545 255 0 255 0 0 -545z m278 533 c8
-8 12 -47 12 -110 l0 -98 -110 0 -110 0 0 110 0 110 98 0 c63 0 102 -4 110
-12z m-858 -388 l0 -110 -110 0 -110 0 0 110 0 110 110 0 110 0 0 -110z m870
0 l0 -110 -110 0 -110 0 0 110 0 110 110 0 110 0 0 -110z m-870 -290 l0 -110
-110 0 -110 0 0 110 0 110 110 0 110 0 0 -110z m870 0 l0 -110 -110 0 -110 0
0 110 0 110 110 0 110 0 0 -110z m-870 -290 l0 -110 -98 0 c-63 0 -102 4 -110
12 -8 8 -12 47 -12 110 l0 98 110 0 110 0 0 -110z m870 12 c0 -63 -4 -102 -12
-110 -8 -8 -47 -12 -110 -12 l-98 0 0 110 0 110 110 0 110 0 0 -98z"/>
    </g>
</svg>
