<?xml version="1.0" standalone="no"?>
<!DOCTYPE svg PUBLIC "-//W3C//DTD SVG 20010904//EN""http://www.w3.org/TR/2001/REC-SVG-20010904/DTD/svg10.dtd">
<svg version="1.0" xmlns="http://www.w3.org/2000/svg" viewBox="0 0 95.000000 95.000000" preserveAspectRatio="xMidYMid meet">
    <metadata>
        Created by potrace 1.16, written by Peter Selinger 2001-2019
    </metadata>
    <g transform="translate(0.000000,95.000000) scale(0.100000,-0.100000)" stroke="none">
        <path d="M374 896 c-126 -58 -177 -199 -119 -323 l24 -53 -126 0 -126 0 6 -60
c16 -180 209 -281 365 -190 l32 19 0 -124 0 -125 53 0 c63 0 120 25 164 71 77
82 86 193 25 312 -2 4 51 7 118 7 l122 0 -4 64 c-5 83 -44 148 -113 191 -43
26 -57 30 -124 30 -61 0 -84 -5 -113 -22 l-38 -22 0 124 0 125 -47 0 c-29 0
-68 -10 -99 -24z m56 -221 l0 -146 -30 16 c-32 16 -66 62 -76 103 -17 65 37
155 104 171 1 1 2 -64 2 -144z m293 -59 c32 -13 87 -68 87 -87 0 -5 -61 -9
-140 -9 -79 0 -140 4 -140 9 0 18 54 74 85 87 39 17 68 17 108 0z m-313 -195
c0 -16 -42 -62 -73 -77 -57 -30 -135 -14 -175 35 -41 52 -44 51 108 51 77 0
140 -4 140 -9z m164 -30 c45 -39 60 -124 31 -181 -15 -28 -60 -70 -76 -70 -5
0 -9 63 -9 140 0 128 1 139 18 133 9 -3 25 -13 36 -22z"/>
    </g>
</svg>
