<?xml version="1.0" standalone="no"?>
<!DOCTYPE svg PUBLIC "-//W3C//DTD SVG 20010904//EN""http://www.w3.org/TR/2001/REC-SVG-20010904/DTD/svg10.dtd">
<svg version="1.0" xmlns="http://www.w3.org/2000/svg" viewBox="0 0 319.000000 319.000000" preserveAspectRatio="xMidYMid meet">
    <metadata>
        Created by potrace 1.16, written by Peter Selinger 2001-2019
    </metadata>
    <g transform="translate(0.000000,319.000000) scale(0.100000,-0.100000)" stroke="none">
        <path d="M442 2938 c-50 -17 -128 -92 -147 -141 -14 -37 -15 -94 -13 -443 l3
-401 30 -49 c19 -30 49 -60 79 -79 l49 -30 395 -3 c383 -3 396 -2 438 18 23
12 59 39 78 60 62 69 66 100 66 494 0 199 -5 370 -11 395 -14 61 -62 126 -117
158 l-47 28 -385 2 c-255 1 -396 -2 -418 -9z m779 -151 c48 -32 49 -45 49
-425 0 -392 1 -386 -60 -417 -24 -12 -87 -15 -367 -15 -317 0 -340 1 -370 20
-52 31 -55 57 -51 442 l3 346 24 26 c14 15 39 31 55 36 17 5 180 8 361 7 297
-2 333 -4 356 -20z"/>
        <path d="M1948 2940 c-79 -24 -149 -99 -167 -181 -6 -25 -11 -196 -11 -395 0
-394 4 -425 66 -494 19 -21 55 -48 78 -60 42 -20 55 -21 438 -18 l395 3 49 30
c30 19 60 49 79 79 l30 49 3 401 c2 349 1 406 -13 443 -20 52 -99 125 -153
141 -46 14 -749 16 -794 2z m769 -156 c52 -39 53 -43 53 -412 0 -378 -3 -397
-61 -427 -42 -22 -687 -22 -729 0 -61 31 -60 25 -60 420 0 340 1 362 20 392
11 19 31 35 47 39 15 3 33 7 38 9 6 2 157 3 337 2 314 -2 328 -3 355 -23z"/>
        <path d="M442 1407 c-49 -15 -128 -91 -147 -140 -14 -37 -15 -94 -13 -443 l3
-401 30 -49 c19 -30 49 -60 79 -79 l49 -30 389 -3 c379 -3 389 -2 438 19 29
13 66 39 86 63 62 73 65 99 62 518 l-3 373 -26 50 c-30 57 -92 109 -147 125
-50 14 -756 12 -800 -3z m751 -138 c26 -7 44 -21 57 -42 19 -30 20 -53 20
-392 0 -395 1 -389 -60 -420 -44 -23 -677 -22 -725 1 -64 30 -66 42 -63 438 3
338 4 355 23 376 41 47 61 49 395 50 192 0 330 -4 353 -11z"/>
        <path d="M1936 1405 c-56 -20 -105 -63 -135 -120 l-26 -50 -3 -373 c-3 -419 0
-445 62 -518 20 -24 57 -50 86 -63 49 -21 59 -22 438 -19 l389 3 49 30 c30 19
60 49 79 79 l30 49 3 401 c2 349 1 406 -13 443 -20 52 -99 125 -153 141 -60
18 -754 16 -806 -3z m781 -151 c52 -39 53 -43 53 -412 0 -383 -2 -396 -65
-426 -48 -23 -681 -24 -725 -1 -61 31 -60 25 -60 420 0 340 1 362 20 392 12
20 32 36 52 42 19 5 174 9 365 8 320 -2 333 -3 360 -23z"/>
    </g>
</svg>
