<?xml version="1.0" standalone="no"?>
<!DOCTYPE svg PUBLIC "-//W3C//DTD SVG 20010904//EN""http://www.w3.org/TR/2001/REC-SVG-20010904/DTD/svg10.dtd">
<svg version="1.0" xmlns="http://www.w3.org/2000/svg" viewBox="0 0 95.000000 95.000000" preserveAspectRatio="xMidYMid meet">
    <metadata>
        Created by potrace 1.16, written by Peter Selinger 2001-2019
    </metadata>
    <g transform="translate(0.000000,95.000000) scale(0.100000,-0.100000)" stroke="none">
        <path d="M133 841 c-22 -14 -34 -30 -38 -53 -3 -18 -5 -169 -3 -335 l3 -301
24 -26 24 -26 329 0 329 0 24 25 25 24 0 329 0 329 -26 24 -26 24 -316 3
c-301 2 -319 1 -349 -17z m627 -366 l0 -285 -285 0 -285 0 0 285 0 285 285 0
285 0 0 -285z"/>
        <path d="M527 532 l-137 -137 -55 55 -55 54 -30 -29 c-16 -16 -30 -34 -30 -40
0 -6 37 -47 83 -93 l82 -82 173 173 172 173 -33 32 -33 32 -137 -138z"/>
    </g>
</svg>
