<?xml version="1.0" standalone="no"?>
<!DOCTYPE svg PUBLIC "-//W3C//DTD SVG 20010904//EN""http://www.w3.org/TR/2001/REC-SVG-20010904/DTD/svg10.dtd">
<svg version="1.0" xmlns="http://www.w3.org/2000/svg" viewBox="0 0 95.000000 95.000000" preserveAspectRatio="xMidYMid meet">
    <metadata>
        Created by potrace 1.16, written by Peter Selinger 2001-2019
    </metadata>
    <g transform="translate(0.000000,95.000000) scale(0.100000,-0.100000)" stroke="none">
        <path d="M143 846 c-47 -21 -55 -62 -51 -249 l3 -159 28 -24 28 -24 323 0 323
0 27 26 26 27 0 182 0 182 -26 24 -26 24 -311 2 c-250 2 -318 0 -344 -11z
m617 -141 l0 -55 -105 0 -105 0 0 -34 c0 -48 -33 -86 -76 -86 -44 0 -72 28
-80 80 l-7 40 -98 0 -99 0 0 55 0 55 285 0 285 0 0 -55z"/>
        <path d="M92 256 c3 -94 5 -107 27 -130 l24 -26 329 0 329 0 24 25 c23 23 25
31 25 130 l0 105 -150 0 -150 0 0 -33 c0 -63 -50 -103 -104 -84 -29 10 -56 57
-56 97 0 19 -6 20 -151 20 l-151 0 4 -104z"/>
    </g>
</svg>
