<?xml version="1.0" standalone="no"?>
<!DOCTYPE svg PUBLIC "-//W3C//DTD SVG 20010904//EN""http://www.w3.org/TR/2001/REC-SVG-20010904/DTD/svg10.dtd">
<svg version="1.0" xmlns="http://www.w3.org/2000/svg" viewBox="0 0 178.000000 178.000000" preserveAspectRatio="xMidYMid meet">
    <metadata>
        Created by potrace 1.16, written by Peter Selinger 2001-2019
    </metadata>
    <g transform="translate(0.000000,178.000000) scale(0.100000,-0.100000)" stroke="none">
        <path d="M600 1503 c-38 -15 -74 -49 -91 -87 -17 -38 -19 -75 -19 -521 0 -479
0 -481 23 -525 28 -56 73 -87 140 -95 29 -4 153 -5 277 -3 251 3 265 7 317 75
l28 36 2 501 3 501 -23 39 c-46 82 -43 81 -360 83 -155 1 -289 -1 -297 -4z
m562 -83 c48 -37 49 -45 46 -544 l-3 -468 -33 -29 -32 -29 -253 0 c-276 0
-281 1 -312 60 -13 25 -15 100 -15 482 0 411 2 456 18 488 28 57 41 60 313 60
230 0 248 -1 271 -20z"/>
        <path d="M763 1284 c-14 -37 9 -49 108 -52 123 -4 141 1 137 36 l-3 27 -118 3
c-102 2 -118 0 -124 -14z"/>
    </g>
</svg>
