<?xml version="1.0" standalone="no"?>
<!DOCTYPE svg PUBLIC "-//W3C//DTD SVG 20010904//EN""http://www.w3.org/TR/2001/REC-SVG-20010904/DTD/svg10.dtd">
<svg version="1.0" xmlns="http://www.w3.org/2000/svg" viewBox="0 0 95.000000 95.000000" preserveAspectRatio="xMidYMid meet">
    <metadata>
        Created by potrace 1.16, written by Peter Selinger 2001-2019
    </metadata>
    <g transform="translate(0.000000,95.000000) scale(0.100000,-0.100000)" stroke="none">
        <path d="M145 810 c-37 -11 -73 -44 -86 -77 -5 -13 -9 -111 -9 -216 0 -219 7
-246 74 -280 34 -18 36 -21 21 -37 -8 -9 -15 -26 -15 -38 0 -38 49 -29 95 18
34 34 45 40 82 40 l43 0 0 110 0 110 -105 0 -105 0 0 140 0 140 185 0 185 0 0
-40 0 -40 45 0 45 0 0 43 c0 46 -22 88 -61 115 -20 14 -53 17 -194 19 -93 1
-184 -2 -200 -7z"/>
        <path d="M462 593 c-11 -10 -34 -58 -51 -106 -27 -78 -31 -102 -31 -198 0
-126 8 -149 50 -149 31 0 50 22 50 59 0 20 5 21 160 21 l160 0 0 -27 c0 -42
13 -55 51 -51 l34 3 3 134 c2 122 0 141 -24 215 -38 117 -35 116 -224 116
-136 0 -161 -2 -178 -17z m333 -70 c9 -20 18 -47 21 -60 l6 -23 -181 0 c-100
0 -181 3 -181 7 0 3 8 30 17 60 l17 53 143 0 143 0 15 -37z"/>
    </g>
</svg>
